<svg width="24" height="17" viewBox="0 0 24 17" fill="none" xmlns="http://www.w3.org/2000/svg">
<path d="M8.2217 13.5519L2.66978 7.99998C2.40411 7.7344 2.04384 7.5852 1.66819 7.5852C1.29255 7.5852 0.932276 7.7344 0.666612 7.99998C0.401028 8.26565 0.251831 8.62592 0.251831 9.00157C0.251831 9.37722 0.401028 9.73749 0.666612 10.0032L6.21853 15.5551C6.48164 15.8183 6.79404 16.0271 7.13787 16.1696C7.4817 16.312 7.85023 16.3853 8.2224 16.3853C8.59458 16.3853 8.96311 16.312 9.30694 16.1696C9.65077 16.0271 9.96317 15.8183 10.2263 15.5551L23.3333 2.44807C23.5989 2.1824 23.7481 1.82213 23.7481 1.44648C23.7481 1.07084 23.5989 0.710565 23.3333 0.444901C23.0676 0.179317 22.7073 0.0301208 22.3317 0.0301208C21.956 0.0301208 21.5958 0.179317 21.3301 0.444901L8.2217 13.5519Z" fill="#4AD894"/>
</svg>
