<svg width="34" height="34" viewBox="0 0 34 34" fill="none" xmlns="http://www.w3.org/2000/svg">
    <path d="M26.9167 0H7.08333C5.20541 0.00224946 3.40504 0.749249 2.07714 2.07714C0.749249 3.40504 0.00224946 5.20541 0 7.08333L0 26.9167C0.00224946 28.7946 0.749249 30.595 2.07714 31.9229C3.40504 33.2508 5.20541 33.9977 7.08333 34H26.9167C28.7946 33.9977 30.595 33.2508 31.9229 31.9229C33.2508 30.595 33.9977 28.7946 34 26.9167V7.08333C33.9977 5.20541 33.2508 3.40504 31.9229 2.07714C30.595 0.749249 28.7946 0.00224946 26.9167 0ZM31.1667 26.9167C31.1667 28.0438 30.7189 29.1248 29.9219 29.9219C29.1248 30.7189 28.0438 31.1667 26.9167 31.1667H7.08333C5.95616 31.1667 4.87516 30.7189 4.07813 29.9219C3.2811 29.1248 2.83333 28.0438 2.83333 26.9167V7.08333C2.83333 5.95616 3.2811 4.87516 4.07813 4.07813C4.87516 3.2811 5.95616 2.83333 7.08333 2.83333H26.9167C28.0438 2.83333 29.1248 3.2811 29.9219 4.07813C30.7189 4.87516 31.1667 5.95616 31.1667 7.08333V26.9167Z" fill="#4AD894"/>
    <svg width="30" height="37" viewBox="-2 -1 25 20" fill="none" xmlns="http://www.w3.org/2000/svg">
        <path d="M8.2217 13.5519L2.66978 7.99998C2.40411 7.7344 2.04384 7.5852 1.66819 7.5852C1.29255 7.5852 0.932276 7.7344 0.666612 7.99998C0.401028 8.26565 0.251831 8.62592 0.251831 9.00157C0.251831 9.37722 0.401028 9.73749 0.666612 10.0032L6.21853 15.5551C6.48164 15.8183 6.79404 16.0271 7.13787 16.1696C7.4817 16.312 7.85023 16.3853 8.2224 16.3853C8.59458 16.3853 8.96311 16.312 9.30694 16.1696C9.65077 16.0271 9.96317 15.8183 10.2263 15.5551L23.3333 2.44807C23.5989 2.1824 23.7481 1.82213 23.7481 1.44648C23.7481 1.07084 23.5989 0.710565 23.3333 0.444901C23.0676 0.179317 22.7073 0.0301208 22.3317 0.0301208C21.956 0.0301208 21.5958 0.179317 21.3301 0.444901L8.2217 13.5519Z" fill="#4AD894"/>
    </svg>
</svg>
