<svg width="34" height="34" viewBox="0 0 34 34" fill="none" xmlns="http://www.w3.org/2000/svg">
<path d="M17 7.08333C16.4364 7.08333 15.8959 6.85945 15.4974 6.46094C15.0989 6.06242 14.875 5.52192 14.875 4.95833V2.125C14.875 1.56141 15.0989 1.02091 15.4974 0.622398C15.8959 0.223883 16.4364 0 17 0C17.5636 0 18.1041 0.223883 18.5026 0.622398C18.9011 1.02091 19.125 1.56141 19.125 2.125V4.95833C19.125 5.52192 18.9011 6.06242 18.5026 6.46094C18.1041 6.85945 17.5636 7.08333 17 7.08333ZM19.125 31.875V29.0417C19.125 28.4781 18.9011 27.9376 18.5026 27.5391C18.1041 27.1406 17.5636 26.9167 17 26.9167C16.4364 26.9167 15.8959 27.1406 15.4974 27.5391C15.0989 27.9376 14.875 28.4781 14.875 29.0417V31.875C14.875 32.4386 15.0989 32.9791 15.4974 33.3776C15.8959 33.7761 16.4364 34 17 34C17.5636 34 18.1041 33.7761 18.5026 33.3776C18.9011 32.9791 19.125 32.4386 19.125 31.875ZM7.08333 17C7.08333 16.4364 6.85945 15.8959 6.46094 15.4974C6.06242 15.0989 5.52192 14.875 4.95833 14.875H2.125C1.56141 14.875 1.02091 15.0989 0.622398 15.4974C0.223883 15.8959 0 16.4364 0 17C0 17.5636 0.223883 18.1041 0.622398 18.5026C1.02091 18.9011 1.56141 19.125 2.125 19.125H4.95833C5.52192 19.125 6.06242 18.9011 6.46094 18.5026C6.85945 18.1041 7.08333 17.5636 7.08333 17ZM34 17C34 16.4364 33.7761 15.8959 33.3776 15.4974C32.9791 15.0989 32.4386 14.875 31.875 14.875H29.0417C28.4781 14.875 27.9376 15.0989 27.5391 15.4974C27.1406 15.8959 26.9167 16.4364 26.9167 17C26.9167 17.5636 27.1406 18.1041 27.5391 18.5026C27.9376 18.9011 28.4781 19.125 29.0417 19.125H31.875C32.4386 19.125 32.9791 18.9011 33.3776 18.5026C33.7761 18.1041 34 17.5636 34 17ZM24.7577 7.54942L26.1474 5.08017C26.413 4.59006 26.4754 4.01522 26.3211 3.47954C26.1669 2.94387 25.8083 2.49027 25.3227 2.21652C24.8371 1.94278 24.2633 1.87081 23.7252 2.01614C23.187 2.16146 22.7275 2.51244 22.4457 2.99342L21.0545 5.46267C20.9174 5.70588 20.8295 5.97374 20.7959 6.25093C20.7624 6.52813 20.7837 6.80922 20.8589 7.07814C20.934 7.34706 21.0614 7.59854 21.2337 7.8182C21.4061 8.03786 21.6201 8.22141 21.8634 8.35833C22.1807 8.53879 22.5396 8.63351 22.9047 8.63317C23.2819 8.63327 23.6524 8.53294 23.9781 8.34247C24.3037 8.15201 24.5728 7.87828 24.7577 7.54942ZM11.5543 31.0066L12.9455 28.5373C13.2222 28.0463 13.2925 27.4654 13.141 26.9225C12.9894 26.3796 12.6284 25.9191 12.1373 25.6424C11.6462 25.3657 11.0653 25.2953 10.5224 25.4469C9.97952 25.5985 9.51905 25.9595 9.24233 26.4506L7.85258 28.9198C7.58697 29.4099 7.52458 29.9848 7.67886 30.5205C7.83314 31.0561 8.19173 31.5097 8.67734 31.7835C9.16294 32.0572 9.73667 32.1292 10.2748 31.9839C10.813 31.8385 11.2725 31.4876 11.5543 31.0066ZM8.35833 12.1366C8.63497 11.6457 8.70531 11.065 8.55388 10.5223C8.40245 9.9795 8.04166 9.51911 7.55083 9.24233L5.08017 7.85258C4.59006 7.58697 4.01522 7.52458 3.47954 7.67886C2.94387 7.83314 2.49027 8.19173 2.21652 8.67734C1.94278 9.16294 1.87081 9.73667 2.01614 10.2748C2.16146 10.813 2.51244 11.2725 2.99342 11.5543L5.46267 12.9455C5.70588 13.0826 5.97374 13.1705 6.25093 13.2041C6.52813 13.2376 6.80922 13.2163 7.07814 13.1411C7.34706 13.066 7.59854 12.9386 7.8182 12.7663C8.03786 12.5939 8.22141 12.3799 8.35833 12.1366ZM31.8155 25.3399C32.0921 24.849 32.1625 24.2683 32.0111 23.7256C31.8596 23.1828 31.4988 22.7224 31.008 22.4457L28.5387 21.0545C28.2956 20.9175 28.0278 20.8297 27.7508 20.7962C27.4737 20.7626 27.1927 20.784 26.9239 20.859C26.6551 20.9341 26.4037 21.0613 26.184 21.2336C25.9644 21.4058 25.7808 21.6196 25.6438 21.8627C25.5068 22.1059 25.419 22.3736 25.3855 22.6507C25.3519 22.9278 25.3733 23.2088 25.4483 23.4776C25.5999 24.0205 25.9609 24.4809 26.452 24.7577L28.9213 26.1474C29.4122 26.4241 29.9928 26.4944 30.5356 26.343C31.0783 26.1915 31.5387 25.8307 31.8155 25.3399ZM12.1366 8.35833C12.6276 8.0818 12.9887 7.62151 13.1404 7.07874C13.2922 6.53596 13.222 5.95516 12.9455 5.46408L11.5543 2.99342C11.2725 2.51244 10.813 2.16146 10.2748 2.01614C9.73667 1.87081 9.16294 1.94278 8.67734 2.21652C8.19173 2.49027 7.83314 2.94387 7.67886 3.47954C7.52458 4.01522 7.58697 4.59006 7.85258 5.08017L9.24233 7.54942C9.42737 7.87802 9.69653 8.15146 10.0222 8.34167C10.3478 8.53188 10.7182 8.632 11.0953 8.63175C11.4603 8.63253 11.8191 8.5383 12.1366 8.35833ZM25.3399 31.8155C25.8307 31.5387 26.1915 31.0783 26.343 30.5356C26.4944 29.9928 26.4241 29.4122 26.1474 28.9213L24.7577 26.452C24.4809 25.9609 24.0205 25.5999 23.4776 25.4483C22.9347 25.2968 22.3538 25.3671 21.8627 25.6438C21.3716 25.9205 21.0106 26.381 20.859 26.9239C20.7075 27.4668 20.7778 28.0477 21.0545 28.5387L22.4457 31.008C22.7224 31.4988 23.1828 31.8596 23.7256 32.0111C24.2683 32.1625 24.849 32.0921 25.3399 31.8155ZM28.5373 12.9455L31.0066 11.5543C31.4876 11.2725 31.8385 10.813 31.9839 10.2748C32.1292 9.73667 32.0572 9.16294 31.7835 8.67734C31.5097 8.19173 31.0561 7.83314 30.5205 7.67886C29.9848 7.52458 29.4099 7.58697 28.9198 7.85258L26.4506 9.24233C25.9595 9.51905 25.5985 9.97952 25.4469 10.5224C25.2953 11.0653 25.3657 11.6462 25.6424 12.1373C25.9191 12.6284 26.3796 12.9894 26.9225 13.141C27.4654 13.2925 28.0463 13.2222 28.5373 12.9455ZM5.08017 26.1474L7.54942 24.7577C7.79257 24.6206 8.00635 24.4371 8.17857 24.2174C8.35077 23.9978 8.47804 23.7464 8.55309 23.4776C8.62813 23.2088 8.6495 22.9278 8.61596 22.6507C8.58243 22.3736 8.49464 22.1059 8.35763 21.8627C8.22061 21.6196 8.03704 21.4058 7.8174 21.2336C7.59776 21.0613 7.34635 20.9341 7.07753 20.859C6.80871 20.784 6.52774 20.7626 6.25066 20.7962C5.97358 20.8297 5.70582 20.9175 5.46267 21.0545L2.99342 22.4457C2.58463 22.6766 2.26383 23.0364 2.08113 23.4689C1.89843 23.9014 1.86411 24.3823 1.98354 24.8363C2.10296 25.2904 2.3694 25.6921 2.74125 25.9788C3.11309 26.2655 3.56941 26.4209 4.03892 26.4208C4.40386 26.4217 4.76272 26.3274 5.08017 26.1474Z" fill="#4AA4D8"/>
</svg>
