<svg width="34" height="34" viewBox="0 0 34 34" fill="none" xmlns="http://www.w3.org/2000/svg">
<path d="M7.61317 26.1446C7.2505 26.1446 6.88783 26.0058 6.61158 25.7295C6.05767 25.1756 6.05767 24.2802 6.61158 23.7263L12.3363 18.0016C12.8888 17.4491 12.8888 16.5509 12.3363 15.9984L6.61158 10.2737C6.05767 9.71975 6.05767 8.82442 6.61158 8.2705C7.1655 7.71658 8.06083 7.71658 8.61475 8.2705L14.3395 13.9952C15.997 15.6527 15.997 18.3472 14.3395 20.0047L8.61475 25.7295C8.3385 26.0058 7.97583 26.1446 7.61317 26.1446ZM34 26.9167V7.08333C34 3.17758 30.8224 0 26.9167 0H7.08333C3.17758 0 0 3.17758 0 7.08333V26.9167C0 30.8224 3.17758 34 7.08333 34H26.9167C30.8224 34 34 30.8224 34 26.9167ZM26.9167 2.83333C29.2598 2.83333 31.1667 4.74017 31.1667 7.08333V26.9167C31.1667 29.2598 29.2598 31.1667 26.9167 31.1667H7.08333C4.74017 31.1667 2.83333 29.2598 2.83333 26.9167V7.08333C2.83333 4.74017 4.74017 2.83333 7.08333 2.83333H26.9167ZM28.3333 24.0833C28.3333 23.2999 27.7001 22.6667 26.9167 22.6667H17C16.218 22.6667 15.5833 23.2999 15.5833 24.0833C15.5833 24.8667 16.218 25.5 17 25.5H26.9167C27.7001 25.5 28.3333 24.8667 28.3333 24.0833Z" fill="#DAB5FF"/>
</svg>
